<svg xmlns="http://www.w3.org/2000/svg" viewBox="0 0 512 512" width="512" height="512">
  <!-- Background Gradient -->
  <defs>
    <linearGradient id="bgGradient" x1="0%" y1="0%" x2="100%" y2="100%">
      <stop offset="0%" style="stop-color:#3B82F6;stop-opacity:1" />
      <stop offset="50%" style="stop-color:#8B5CF6;stop-opacity:1" />
      <stop offset="100%" style="stop-color:#EC4899;stop-opacity:1" />
    </linearGradient>
    
    <!-- Book Shadow -->
    <filter id="shadow" x="-50%" y="-50%" width="200%" height="200%">
      <feDropShadow dx="8" dy="8" stdDeviation="8" flood-color="rgba(0,0,0,0.3)"/>
    </filter>
    
    <!-- Glow Effect -->
    <filter id="glow" x="-50%" y="-50%" width="200%" height="200%">
      <feGaussianBlur stdDeviation="4" result="coloredBlur"/>
      <feMerge> 
        <feMergeNode in="coloredBlur"/>
        <feMergeNode in="SourceGraphic"/>
      </feMerge>
    </filter>
  </defs>
  
  <!-- Background Circle -->
  <circle cx="256" cy="256" r="240" fill="url(#bgGradient)" opacity="0.95"/>
  
  <!-- Book Base -->
  <g filter="url(#shadow)">
    <!-- Book Cover -->
    <rect x="160" y="120" width="192" height="272" rx="12" ry="12" fill="#FFFFFF" opacity="0.95"/>
    
    <!-- Book Spine -->
    <rect x="160" y="120" width="20" height="272" rx="12" ry="12" fill="#E5E7EB"/>
    
    <!-- Book Pages -->
    <rect x="188" y="140" width="152" height="232" rx="8" ry="8" fill="#F9FAFB"/>
    
    <!-- Page Lines -->
    <line x1="200" y1="170" x2="320" y2="170" stroke="#D1D5DB" stroke-width="2" opacity="0.7"/>
    <line x1="200" y1="190" x2="300" y2="190" stroke="#D1D5DB" stroke-width="2" opacity="0.7"/>
    <line x1="200" y1="210" x2="280" y2="210" stroke="#D1D5DB" stroke-width="2" opacity="0.7"/>
    <line x1="200" y1="230" x2="310" y2="230" stroke="#D1D5DB" stroke-width="2" opacity="0.7"/>
    
    <!-- Special Flash Card -->
    <rect x="200" y="260" width="120" height="80" rx="8" ry="8" fill="url(#bgGradient)" opacity="0.9"/>
    
    <!-- Card Text (Arabic Word) -->
    <text x="260" y="285" text-anchor="middle" fill="white" font-family="Arial, sans-serif" font-size="12" font-weight="bold">كلمة</text>
    <text x="260" y="300" text-anchor="middle" fill="white" font-family="Arial, sans-serif" font-size="10">Word</text>
    
    <!-- Card Flip Indicator -->
    <circle cx="310" cy="275" r="8" fill="rgba(255,255,255,0.3)"/>
    <path d="M306 275 L310 271 L314 275 L310 279 Z" fill="white" opacity="0.8"/>
  </g>
  
  <!-- Floating Cards -->
  <g filter="url(#glow)">
    <!-- Card 1 -->
    <rect x="80" y="180" width="60" height="40" rx="6" ry="6" fill="#10B981" opacity="0.8" transform="rotate(-15 110 200)"/>
    <text x="110" y="195" text-anchor="middle" fill="white" font-family="Arial, sans-serif" font-size="8" font-weight="bold" transform="rotate(-15 110 200)">سهل</text>
    <text x="110" y="205" text-anchor="middle" fill="white" font-family="Arial, sans-serif" font-size="7" transform="rotate(-15 110 200)">Easy</text>
    
    <!-- Card 2 -->
    <rect x="370" y="200" width="60" height="40" rx="6" ry="6" fill="#F59E0B" opacity="0.8" transform="rotate(15 400 220)"/>
    <text x="400" y="215" text-anchor="middle" fill="white" font-family="Arial, sans-serif" font-size="8" font-weight="bold" transform="rotate(15 400 220)">متوسط</text>
    <text x="400" y="225" text-anchor="middle" fill="white" font-family="Arial, sans-serif" font-size="7" transform="rotate(15 400 220)">Medium</text>
    
    <!-- Card 3 -->
    <rect x="90" y="320" width="60" height="40" rx="6" ry="6" fill="#EF4444" opacity="0.8" transform="rotate(10 120 340)"/>
    <text x="120" y="335" text-anchor="middle" fill="white" font-family="Arial, sans-serif" font-size="8" font-weight="bold" transform="rotate(10 120 340)">صعب</text>
    <text x="120" y="345" text-anchor="middle" fill="white" font-family="Arial, sans-serif" font-size="7" transform="rotate(10 120 340)">Hard</text>
  </g>
  
  <!-- App Name -->
  <text x="256" y="450" text-anchor="middle" fill="white" font-family="Arial, sans-serif" font-size="24" font-weight="bold" opacity="0.9">Fluid Cards</text>
  
  <!-- Success Stars -->
  <g opacity="0.7">
    <path d="M100 100 L105 110 L115 110 L107 117 L110 127 L100 122 L90 127 L93 117 L85 110 L95 110 Z" fill="#FCD34D"/>
    <path d="M420 100 L425 110 L435 110 L427 117 L430 127 L420 122 L410 127 L413 117 L405 110 L415 110 Z" fill="#FCD34D"/>
    <path d="M400 400 L405 410 L415 410 L407 417 L410 427 L400 422 L390 427 L393 417 L385 410 L395 410 Z" fill="#FCD34D"/>
  </g>
</svg>